<svg
  width="16"
  height="16"
  viewBox="0 0 16 16"
  fill="none"
  xmlns="http://www.w3.org/2000/svg"
>
<g clip-path="url(#clip0_3119_56135)">
<rect width="16" height="16" fill="#fff" />
<g clip-path="url(#clip1_3119_56135)">
<path
        d="M6.544 8.624C5.056 10.208 3.648 11.888 2.368 13.664C4.144 12.384 5.824 10.992 7.408 9.488C7.472 11.664 7.68 13.84 8.016 16C8.368 13.84 8.56 11.664 8.624 9.488C10.208 10.992 11.888 12.384 13.664 13.664C12.384 11.888 10.992 10.208 9.488 8.624C11.664 8.56 13.84 8.352 16 8C13.84 7.648 11.664 7.44 9.488 7.376C10.992 5.792 12.384 4.112 13.664 2.336C11.888 3.616 10.208 5.008 8.624 6.512C8.56 4.336 8.352 2.16 8 0C7.648 2.16 7.44 4.336 7.376 6.512C5.792 5.024 4.112 3.616 2.336 2.336C3.616 4.112 5.008 5.792 6.512 7.376C4.336 7.44 2.16 7.648 0 7.984C2.16 8.336 4.336 8.528 6.512 8.592L6.544 8.624Z"
        fill="#0033CC"
      />
</g>
</g>
<defs>
<clipPath id="clip0_3119_56135">
<rect width="16" height="16" fill="#EFEBE4" />
</clipPath>
<clipPath id="clip1_3119_56135">
<rect width="16" height="16" fill="#EFEBE4" />
</clipPath>
</defs>
</svg>
