<svg width="24" height="24" viewBox="0 0 24 24" fill="none" xmlns="http://www.w3.org/2000/svg">
<circle cx="12" cy="12" r="12" fill="#222426"/>
<path d="M11.5613 7.58063L13.1081 6.03383C13.4273 5.71439 13.8063 5.46095 14.2234 5.288C14.6405 5.11505 15.0876 5.02598 15.5392 5.02588C15.9907 5.02577 16.4379 5.11464 16.8551 5.28739C17.2723 5.46014 17.6513 5.7134 17.9706 6.0327C18.2899 6.352 18.5432 6.73107 18.7159 7.14827C18.8887 7.56548 18.9776 8.01263 18.9775 8.46418C18.9774 8.91573 18.8883 9.36284 18.7153 9.77996C18.5424 10.1971 18.289 10.576 17.9695 10.8952L15.7598 13.1049C15.4406 13.4241 15.0616 13.6773 14.6446 13.8501C14.2275 14.0228 13.7805 14.1117 13.3291 14.1117C12.8777 14.1117 12.4307 14.0228 12.0136 13.8501C11.5966 13.6773 11.2176 13.4241 10.8984 13.1049" stroke="#EFEBE4" stroke-width="2" stroke-linecap="round" stroke-linejoin="round"/>
<path d="M12.4395 16.4195L10.8927 17.9663C10.5736 18.2858 10.1946 18.5392 9.77752 18.7121C9.3604 18.8851 8.91329 18.9742 8.46174 18.9743C8.01018 18.9744 7.56303 18.8855 7.14583 18.7128C6.72863 18.54 6.34955 18.2867 6.03026 17.9674C5.71096 17.6482 5.4577 17.2691 5.28495 16.8519C5.11219 16.4347 5.02333 15.9875 5.02344 15.536C5.02354 15.0844 5.11261 14.6373 5.28556 14.2202C5.45851 13.8031 5.71194 13.4241 6.03139 13.105L8.2411 10.8952C8.5603 10.576 8.93925 10.3228 9.3563 10.1501C9.77336 9.97734 10.2204 9.88843 10.6718 9.88843C11.1232 9.88843 11.5702 9.97734 11.9873 10.1501C12.4043 10.3228 12.7833 10.576 13.1025 10.8952" stroke="#EFEBE4" stroke-width="2" stroke-linecap="round" stroke-linejoin="round"/>
</svg>
